<svg width="575" height="113" viewBox="0 0 575 113" fill="none" xmlns="http://www.w3.org/2000/svg">
<path d="M24.4088 84.1889H6L34.7557 3.5274H51.966L80.6097 84.1889H61.8732L56.2083 67.1798H30.1772L24.4088 84.1889ZM41.0759 35.1379L35.3075 52.3626H51.2073L45.4389 35.1379C44.9991 33.7571 44.568 32.3418 44.1283 30.8834C43.6972 29.4337 43.404 28.2341 43.2574 27.2849C43.1108 28.2341 42.8349 29.4078 42.4383 30.8317C42.0417 32.2469 41.5847 33.6881 41.0759 35.1379Z" fill="#FF5100"/>
<path d="M81.4633 110.354V29.6926H97.2595L98.1304 36.346C99.6565 33.8003 102.01 31.7637 105.209 30.2449C108.408 28.7174 111.926 27.958 115.772 27.958C120.85 27.958 125.317 29.0885 129.171 31.3408C133.017 33.5932 136.034 36.812 138.207 40.9888C140.389 45.1656 141.475 50.1966 141.475 56.0907C141.475 61.9848 140.475 66.9382 138.483 71.4084C136.483 75.8785 133.586 79.3822 129.775 81.9279C125.963 84.4737 121.333 85.7422 115.884 85.7422C112.107 85.7422 108.624 85.0864 105.425 83.7833C102.226 82.4716 99.829 80.806 98.2338 78.7694V110.38H81.4633V110.354ZM98.3459 56.9364C98.3459 59.6289 98.9064 62.002 100.036 64.0732C101.157 66.1443 102.717 67.7408 104.718 68.8712C106.718 70.0017 109.02 70.5626 111.633 70.5626C114.246 70.5626 116.625 69.9845 118.548 68.8195C120.471 67.6545 121.963 66.058 123.015 64.0214C124.067 61.9848 124.593 59.6289 124.593 56.9364C124.593 54.244 124.067 51.8881 123.015 49.8515C121.963 47.8149 120.471 46.2184 118.548 45.0534C116.625 43.8884 114.315 43.3102 111.633 43.3102C108.951 43.3102 106.71 43.8711 104.718 45.0016C102.717 46.1321 101.157 47.7113 100.036 49.7479C98.9064 51.7845 98.3459 54.1836 98.3459 56.9451V56.9364Z" fill="#FF5100"/>
<path d="M159.444 85.6127C153.71 85.6127 149.149 84.0335 145.778 80.8664C142.398 77.708 140.716 73.4708 140.716 68.1636C140.716 63.1498 142.441 59.1542 145.89 56.1683C149.339 53.1911 154.331 51.4479 160.867 50.9388L176.111 49.7393V48.8677C176.111 47.0554 175.749 45.5452 175.025 44.3457C174.301 43.1462 173.266 42.2401 171.921 41.6188C170.576 41.006 168.886 40.6954 166.86 40.6954C163.299 40.6954 160.6 41.3512 158.746 42.6543C156.892 43.9574 155.969 45.8559 155.969 48.324H142.027C142.027 44.1817 143.079 40.5832 145.183 37.5369C147.287 34.482 150.287 32.1261 154.167 30.452C158.047 28.7778 162.574 27.9407 167.73 27.9407C172.887 27.9407 177.517 28.89 181.181 30.7713C184.846 32.6612 187.64 35.4227 189.571 39.0557C191.494 42.6888 192.459 47.1245 192.459 52.354V84.1802H177.646L176.56 76.9831C175.689 79.4512 173.637 81.505 170.403 83.1447C167.17 84.7757 163.523 85.5955 159.462 85.5955L159.444 85.6127ZM165.325 73.1861C168.515 73.1861 171.136 72.4094 173.171 70.8388C175.206 69.2768 176.223 66.9296 176.223 63.8056V60.8629L167.73 61.6223C164.1 61.9157 161.54 62.5112 160.048 63.4173C158.556 64.3234 157.815 65.6523 157.815 67.3955C157.815 69.3545 158.427 70.8129 159.668 71.7535C160.901 72.7028 162.79 73.1688 165.333 73.1688L165.325 73.1861Z" fill="#FF5100"/>
<path d="M193.313 56.7206C193.313 51.1286 194.512 46.1666 196.909 41.8431C199.306 37.5196 202.591 34.1195 206.764 31.6514C210.937 29.1834 215.749 27.9493 221.198 27.9493C229.26 27.9493 235.796 30.0204 240.805 34.1627C245.815 38.3049 248.574 43.9401 249.083 51.0596H232.2C231.614 48.2981 230.476 46.2615 228.768 44.9584C227.061 43.6467 224.759 42.9995 221.853 42.9995C219.525 42.9995 217.482 43.5604 215.697 44.6909C213.921 45.8214 212.558 47.4006 211.61 49.4372C210.661 51.4738 210.196 53.9074 210.196 56.7379C210.196 59.5684 210.644 62.1314 211.558 64.2025C212.463 66.2736 213.774 67.8529 215.481 68.9402C217.189 70.0275 219.241 70.5712 221.638 70.5712C224.612 70.5712 226.992 69.8981 228.768 68.5519C230.545 67.2057 231.691 65.195 232.2 62.5025H249.083C248.721 67.0762 247.324 71.0976 244.892 74.5495C242.461 78.0013 239.245 80.7111 235.253 82.67C231.26 84.6289 226.716 85.6127 221.638 85.6127C215.904 85.6127 210.911 84.4132 206.661 82.0141C202.41 79.6151 199.125 76.2582 196.805 71.9347C194.477 67.6113 193.322 62.5456 193.322 56.7293L193.313 56.7206Z" fill="#FF5100"/>
<path d="M266.836 84.1889H250.066V2H266.948V35.3536C268.621 33.0322 270.923 31.2114 273.864 29.8997C276.804 28.588 280.055 27.9408 283.616 27.9408C290.074 27.9408 295.109 29.9256 298.696 33.878C302.292 37.839 304.085 43.3792 304.085 50.4987V84.1803H287.315V54.5287C287.315 52.2074 286.918 50.2053 286.116 48.5311C285.314 46.857 284.211 45.5539 282.796 44.6046C281.382 43.664 279.692 43.1894 277.735 43.1894C275.554 43.1894 273.648 43.6467 272.018 44.5528C270.389 45.459 269.113 46.7534 268.207 48.4189C267.302 50.0931 266.845 52.052 266.845 54.3043V84.1716L266.836 84.1889Z" fill="#FF5100"/>
<path d="M333.16 85.6128C327.711 85.6128 322.865 84.3787 318.623 81.9107C314.372 79.4426 311.035 76.0425 308.603 71.719C306.172 67.3956 304.956 62.4335 304.956 56.8415C304.956 51.2495 306.137 46.1752 308.5 41.8518C310.862 37.5283 314.148 34.1282 318.355 31.6601C322.563 29.1921 327.392 27.958 332.841 27.958C338.575 27.958 343.515 29.1403 347.654 31.5048C351.793 33.8693 354.992 37.209 357.242 41.5325C359.493 45.8559 360.622 50.9992 360.622 56.9537V61.2081L313.785 61.4239L314.001 51.0682H343.955C343.955 48.16 342.972 45.8559 341.015 44.1473C339.058 42.4386 336.367 41.5842 332.953 41.5842C330.125 41.5842 327.814 42.1279 326.038 43.2153C324.262 44.3026 322.934 45.994 322.063 48.2809C321.192 50.5677 320.752 53.4932 320.752 57.0572C320.752 62.1487 321.787 65.9027 323.856 68.3362C325.926 70.7698 329.142 71.9865 333.496 71.9865C336.695 71.9865 339.342 71.4429 341.446 70.3555C343.55 69.2682 344.895 67.7407 345.473 65.7732H360.829C359.881 71.8053 356.906 76.6207 351.896 80.2192C346.887 83.8178 340.644 85.6128 333.16 85.6128Z" fill="#FF5100"/>
<path d="M375.444 70.0189H380.342C380.342 73.3586 381.523 76.0166 383.886 77.9755C386.248 79.9344 389.421 80.9182 393.413 80.9182C397.845 80.9182 401.329 79.9948 403.872 78.1395C406.416 76.2841 407.683 73.7642 407.683 70.5626C407.683 68.0168 406.994 66.0234 405.614 64.565C404.234 63.1152 401.837 61.9502 398.423 61.0786L389.602 58.7918C385.17 57.6268 381.868 55.849 379.686 53.45C377.505 51.0509 376.419 48.2549 376.419 45.0533C376.419 42.1451 377.16 39.5994 378.652 37.4247C380.135 35.2414 382.247 33.5586 384.972 32.3591C387.697 31.1596 390.835 30.5641 394.396 30.5641C397.957 30.5641 401.148 31.1855 403.76 32.4195C406.373 33.6536 408.425 35.3967 409.917 37.6491C411.408 39.9014 412.184 42.6284 412.262 45.8214H407.364C407.218 42.404 406.002 39.772 403.717 37.9166C401.432 36.0612 398.328 35.1379 394.405 35.1379C390.197 35.1379 386.981 35.9922 384.765 37.7009C382.549 39.4095 381.445 41.8604 381.445 45.062C381.445 49.6357 384.567 52.7337 390.809 54.3302L399.527 56.6171C404.096 57.7821 407.442 59.4908 409.546 61.7431C411.65 63.9955 412.702 66.9381 412.702 70.5712C412.702 73.5485 411.9 76.1719 410.305 78.4243C408.709 80.6766 406.493 82.4198 403.657 83.6538C400.82 84.8879 397.483 85.5092 393.637 85.5092C388.119 85.5092 383.704 84.1112 380.402 81.3152C377.1 78.5192 375.444 74.7566 375.444 70.0362V70.0189Z" fill="#FF5100"/>
<path d="M420.427 15.8419C419.194 15.8419 418.116 15.3932 417.211 14.4784C416.306 13.5723 415.849 12.5368 415.849 11.3718C415.849 10.1377 416.306 9.05039 417.211 8.10113C418.116 7.1605 419.186 6.68585 420.427 6.68585C421.669 6.68585 422.729 7.1605 423.635 8.10113C424.54 9.04176 424.997 10.1377 424.997 11.3718C424.997 12.5368 424.54 13.5723 423.635 14.4784C422.729 15.3845 421.66 15.8419 420.427 15.8419ZM417.918 84.1889V31.8672H422.928V84.1889H417.918Z" fill="#FF5100"/>
<path d="M427.394 56.3927C427.394 51.7414 428.36 47.4697 430.283 43.5863C432.205 39.703 434.982 36.5532 438.612 34.1541C442.242 31.7551 446.631 30.5555 451.787 30.5555C456.943 30.5555 461.461 31.9018 465.126 34.5856C468.79 37.2781 471.42 41.1614 473.024 46.2529L472.041 47.8839L472.912 31.8586H476.939V83.0929C476.939 87.96 475.921 92.2317 473.886 95.8994C471.851 99.567 469.023 102.423 465.393 104.46C461.763 106.497 457.512 107.515 452.649 107.515C446.329 107.515 441.052 105.823 436.801 102.449C432.55 99.0664 429.886 94.3978 428.791 88.4433H433.689C434.706 93.017 436.887 96.5811 440.224 99.1268C443.561 101.673 447.734 102.941 452.753 102.941C458.564 102.941 463.229 101.12 466.747 97.4872C470.265 93.8541 472.032 89.056 472.032 83.1016V65.2209L472.903 66.6361C471.308 71.5033 468.583 75.3176 464.738 78.0791C460.892 80.8406 456.383 82.2213 451.235 82.2213C446.088 82.2213 441.94 81.0218 438.379 78.6228C434.818 76.2237 432.093 73.0653 430.214 69.1388C428.325 65.2123 427.377 60.9665 427.377 56.3841L427.394 56.3927ZM432.516 56.3927C432.516 60.2416 433.257 63.7884 434.749 67.0245C436.232 70.2606 438.414 72.8409 441.285 74.7653C444.156 76.6897 447.579 77.6562 451.58 77.6562C455.581 77.6562 459.254 76.7328 462.203 74.8775C465.143 73.0221 467.376 70.485 468.902 67.2489C470.429 64.0127 471.187 60.3624 471.187 56.2978C471.187 52.2333 470.446 48.6088 468.954 45.4503C467.463 42.2919 465.29 39.7807 462.418 37.9253C459.547 36.0699 456.012 35.1465 451.796 35.1465C447.579 35.1465 444.156 36.1303 441.285 38.0892C438.414 40.0482 436.241 42.6284 434.749 45.83C433.257 49.0317 432.516 52.5526 432.516 56.4014V56.3927Z" fill="#FF5100"/>
<path d="M490.355 84.1889H485.345V31.8672H489.372L490.459 42.0071C492.2 38.374 494.744 35.5607 498.081 33.5586C501.418 31.5566 505.048 30.5641 508.971 30.5641C516.377 30.5641 521.62 32.5662 524.707 36.5617C527.794 40.5573 529.337 45.83 529.337 52.3713V84.1974H524.327V53.3464C524.327 46.4427 522.931 41.6792 520.137 39.0644C517.343 36.4496 513.584 35.1379 508.867 35.1379C502.909 35.1379 498.339 37.1572 495.14 41.1873C491.942 45.2173 490.346 50.5418 490.346 57.1608V84.1974L490.355 84.1889Z" fill="#FF5100"/>
<path d="M531.743 70.0189H536.64C536.64 73.3586 537.821 76.0166 540.184 77.9755C542.538 79.9344 545.72 80.9182 549.712 80.9182C554.135 80.9182 557.627 79.9948 560.171 78.1395C562.714 76.2841 563.982 73.7642 563.982 70.5626C563.982 68.0168 563.292 66.0234 561.912 64.565C560.533 63.1152 558.136 61.9502 554.721 61.0786L545.901 58.7918C541.469 57.6268 538.166 55.849 535.993 53.45C533.812 51.0509 532.726 48.2549 532.726 45.0533C532.726 42.1451 533.467 39.5994 534.959 37.4247C536.45 35.25 538.554 33.5586 541.279 32.3591C544.004 31.1596 547.142 30.5641 550.703 30.5641C554.264 30.5641 557.455 31.1855 560.067 32.4195C562.68 33.6536 564.732 35.3967 566.224 37.6491C567.707 39.9014 568.491 42.6284 568.56 45.8214H563.663C563.516 42.404 562.3 39.772 560.015 37.9166C557.731 36.0612 554.626 35.1379 550.703 35.1379C546.496 35.1379 543.279 35.9922 541.063 37.7009C538.847 39.4095 537.744 41.8604 537.744 45.062C537.744 49.6357 540.865 52.7337 547.108 54.3302L555.825 56.6171C560.395 57.7821 563.74 59.4908 565.844 61.7431C567.948 63.9955 569 66.9381 569 70.5712C569 73.5485 568.198 76.1719 566.603 78.4243C565.008 80.6766 562.792 82.4198 559.955 83.6538C557.127 84.8879 553.781 85.5092 549.936 85.5092C544.418 85.5092 540.003 84.1112 536.7 81.3152C533.398 78.5192 531.743 74.7566 531.743 70.0362V70.0189Z" fill="#FF5100"/>
</svg>
