<svg viewBox="332.4382 336.0779 449.1236 113.8441" width="5000" height="1267.4027817732133" xmlns="http://www.w3.org/2000/svg" xmlns:xlink="http://www.w3.org/1999/xlink" preserveAspectRatio="none"><defs></defs><style>.aD6z1nYkhcolor {fill:#FFFFFF;fill-opacity:1;}.aD6z1nYkhstrokeColor-str {stroke:#D9D9D9;stroke-opacity:1;}.aIptOCySncolors-0 {fill:#FFFFFF;fill-opacity:1;}.aKAu1xvGJ5colors-0 {fill:#FFFFFF;fill-opacity:1;}.akd1NTa2jufillColor {fill:#FFFFFF;fill-opacity:1;}.akd1NTa2justrokeColor-str {stroke:#D9D9D9;stroke-opacity:1;}.aS4ZWKg3ACcolor {fill:#FFFFFF;fill-opacity:1;}.aS4ZWKg3ACstrokeColor-str {stroke:#D9D9D9;stroke-opacity:1;}.ashadowSSnTW2uObHd-floo {flood-color:#EEF8F7;flood-opacity:0.5;}.ashadowtBNeWVCu6za-floo {flood-color:#E35F21;flood-opacity:0.5;}.atBXipXk0bfillColor {fill:#FFFFFF;fill-opacity:1;}.atBXipXk0bstrokeColor-str {stroke:#D9D9D9;stroke-opacity:1;}</style><defs>
      <filter
        x="472.0785"
        y="395.6996"
        width="309.4833"
        height="52.8679"
        id="Ts33uusdV"
        filterUnits="userSpaceOnUse"
        primitiveUnits="userSpaceOnUse"
        color-interpolation-filters="sRGB">
        <feMerge><feMergeNode in="SourceGraphic" /></feMerge>
      </filter>
      <filter
        x="372.2851"
        y="367.6443"
        width="24.4011"
        height="38.6346"
        id="bhXot3Caw"
        filterUnits="userSpaceOnUse"
        primitiveUnits="userSpaceOnUse"
        color-interpolation-filters="sRGB">
        <feMerge><feMergeNode in="SourceGraphic" /></feMerge>
      </filter></defs><g opacity="0.2" transform="rotate(180 436.5331 449.922)">
<svg width="104.0949" height="108.1205" x="436.5331" y="449.922" version="1.1" preserveAspectRatio="none" viewBox="4.800000190734863 3 90.5 94">
  <g transform="matrix(1 0 0 1 0 0)" class="aIptOCySncolors-0"><switch><g><g><path d="M7.5,97H10c1.5,0,2.8-1.2,2.8-2.8V49.9L50,12.7l37.2,37.2v26.8H33c-1.5,0-2.8,1.2-2.8,2.8v2.5c0,1.5,1.2,2.8,2.8,2.8     h58.2c2.2,0,4-1.8,4-4V48.2c0-1.1-0.4-2.1-1.2-2.8L52.8,4.2C52.1,3.4,51.1,3,50,3s-2.1,0.4-2.8,1.2L6,45.4     c-0.8,0.8-1.2,1.8-1.2,2.8v46C4.8,95.7,6,97,7.5,97z"></path></g><g><path d="M21.6,97h70.9c1.5,0,2.8-1.2,2.8-2.8v-2.5c0-1.5-1.2-2.8-2.8-2.8H25.6V54.9L50,30.4l24.4,24.4v14.6     c0,1.5,1.2,2.8,2.8,2.8h2.5c1.5,0,2.8-1.2,2.8-2.8V53.2c0-1.1-0.4-2.1-1.2-2.8L52.8,22c-0.8-0.8-1.8-1.2-2.8-1.2     s-2.1,0.4-2.8,1.2L18.8,50.4c-0.7,0.7-1.2,1.8-1.2,2.8V93C17.6,95.2,19.4,97,21.6,97z"></path></g></g></switch></g>
</svg>
</g><g opacity="1" transform="rotate(0 454.103 336.0779)">
<svg width="4.3269" height="113.8441" x="454.103" y="336.0779" version="1.1" preserveAspectRatio="none" viewBox="0 0 4.3269 113.8441">
  <rect x="0" y="0" width="4.3269" height="113.8441" class="atBXipXk0bfillColor atBXipXk0bstrokeColor-str" style="stroke-width:0;" rx="0px" ry="0px" />
</svg>
</g><g opacity="0.2" transform="rotate(0 372.2851 367.6443)">
<svg width="24.4011" height="38.6346" x="372.2851" y="367.6443" version="1.1" preserveAspectRatio="none" viewBox="21.24148750305176 5 57.029022216796875 90.2943115234375">
  <g transform="matrix(1 0 0 1 0 0)" class="aKAu1xvGJ5colors-0"><path d="M50.099884,27.1150742c1.8896217,0,3.4768562-1.5334129,3.4768562-3.4237976V8.4237118  C53.5767403,6.5329876,51.9895058,5,50.099884,5c-1.8902969,0-3.4775314,1.5329876-3.4775314,3.4237118v15.2675648  C46.6223526,25.5816612,48.2095871,27.1150742,50.099884,27.1150742z"></path><path d="M35.4595909,32.2929192c0.8765144,0,1.7526894-0.3343925,2.4210472-1.0044479  c1.3365479-1.3366318,1.3365479-3.5043602-0.0007629-4.8420944L27.0852909,15.652812  c-1.3362923-1.3354425-3.5048695-1.3362064-4.8413296,0.0007639c-1.3366318,1.3376503-1.3366318,3.5044441,0,4.8421803  l10.7952614,10.7945824C33.7075806,31.9585266,34.5837555,32.2929192,35.4595909,32.2929192z"></path><path d="M77.266571,15.6553593c-1.3346786-1.3370562-3.5039368-1.3370562-4.8395538,0L61.6324387,26.4490929  c-1.3373108,1.3366318-1.3373108,3.5046997,0,4.8412457c0.6675949,0.6681881,1.5446167,1.0025806,2.4210434,1.0025806  c0.8750763,0,1.7513351-0.3343925,2.4199448-1.0035992L77.266571,20.4965191  C78.6051559,19.1598892,78.6051559,16.9922447,77.266571,15.6553593z"></path><path d="M49.8989449,42.0584335c-1.6261978,0-2.9438133,1.2771225-2.9438133,2.853405  c0,1.5756035,1.3176155,2.8531494,2.9438133,2.8531494c1.5839233,0,2.8721657,1.2480888,2.8721657,2.7827759  c0,1.5761986,1.3180389,2.8534889,2.9440689,2.8534889c1.6263695,0,2.9450912-1.2772903,2.9450912-2.8542519  C58.6602707,45.8661156,54.7295799,42.0584335,49.8989449,42.0584335z"></path><path d="M49.7526741,33.1541519c-10.0426025,0-17.734539,7.9157104-17.734539,17.6448097v17.3424187v7.5842896  c0,1.8908081,1.1210899,3.6862869,3.0723419,3.6862869h3.8820457v12.4581299c0,1.8917465,1.2373924,3.423378,3.1291351,3.4242249  c1.8903008,0,3.129818-1.5324783,3.129818-3.4242249V79.4119568h9.0407028v12.4581299  c0,1.8917465,1.584774,3.423378,3.4766846,3.4242249c1.8908081,0,3.4777031-1.5324783,3.4777031-3.4242249V79.4119568h3.1952705  c1.9512482,0,3.0636826-1.7954788,3.0636826-3.6862869v-7.5842896V50.7989616  C67.4855194,41.0698624,59.7946014,33.1541519,49.7526741,33.1541519z M61.2265663,67.8293152c0,0.0427017,0,0.081749,0,0.1224976  v5.2011948h-22.949482V66.687767c0-0.0428696,0-0.081749,0-0.1225815V50.7989616  c0-5.9541893,5.3300591-10.7974701,11.4758453-10.7974701c6.1445999,0,11.4736366,4.8432808,11.4736366,10.7974701V67.8293152z"></path></g>
</svg>
</g><g opacity="1" transform="rotate(0 472.0785 395.6996)">
<svg width="309.4833" height="52.8679" x="472.0785" y="395.6996" version="1.1" preserveAspectRatio="none" viewBox="1.92 12.8 312.28 71.60000000000001">
  <g transform="matrix(1 0 0 1 0 0)" class="aD6z1nYkhcolor"><defs><path id="id-D6z1nYkh27" d="M12.80 15.20Q19.88 15.20 23 20.80L23 20.80L20.24 23.04Q19.04 20.40 17.38 19.30Q15.72 18.20 12.84 18.20L12.84 18.20Q9.80 18.20 8.06 19.46Q6.32 20.72 6.32 22.68L6.32 22.68Q6.32 23.96 7 24.80Q7.68 25.64 9.26 26.26Q10.84 26.88 13.64 27.36L13.64 27.36Q18.88 28.24 21.06 30Q23.24 31.76 23.24 34.88L23.24 34.88Q23.24 37.12 21.98 38.82Q20.72 40.52 18.40 41.46Q16.08 42.40 13.04 42.40L13.04 42.40Q9.04 42.40 6.22 40.84Q3.40 39.28 1.92 36.68L1.92 36.68L4.68 34.44Q5.76 36.80 7.86 38.10Q9.96 39.40 13.12 39.40L13.12 39.40Q16.24 39.40 18.08 38.26Q19.92 37.12 19.92 35.04L19.92 35.04Q19.92 33.28 18.32 32.24Q16.72 31.20 12.64 30.48L12.64 30.48Q7.36 29.56 5.16 27.84Q2.96 26.12 2.96 23.04L2.96 23.04Q2.96 20.92 4.16 19.12Q5.36 17.32 7.60 16.26Q9.84 15.20 12.80 15.20L12.80 15.20Z M30.76 18.16Q29.68 18.16 29.02 17.50Q28.36 16.84 28.36 15.76L28.36 15.76Q28.36 14.68 29.02 14.02Q29.68 13.36 30.76 13.36L30.76 13.36Q31.84 13.36 32.50 14.02Q33.16 14.68 33.16 15.76L33.16 15.76Q33.16 16.84 32.50 17.50Q31.84 18.16 30.76 18.16L30.76 18.16ZM32.36 22L32.36 42L29.16 42L29.16 22L32.36 22Z M50.96 39.44Q53.80 39.44 55.40 40.72Q57 42 57 44.20L57 44.20Q57 46.12 55.68 47.58Q54.36 49.04 52.10 49.82Q49.84 50.60 47.12 50.60L47.12 50.60Q42.56 50.60 40.24 49.14Q37.92 47.68 37.92 45.32L37.92 45.32Q37.92 43.96 38.86 42.92Q39.80 41.88 41.44 41.44L41.44 41.44Q40.20 40.84 39.46 39.92Q38.72 39 38.72 37.76L38.72 37.76Q38.72 36.28 39.52 35.30Q40.32 34.32 41.72 33.84L41.72 33.84Q40.28 32.96 39.54 31.54Q38.80 30.12 38.80 28.36L38.80 28.36Q38.80 26.40 39.84 24.86Q40.88 23.32 42.76 22.46Q44.64 21.60 47 21.60L47 21.60Q49.24 21.60 51.08 22.40L51.08 22.40Q52.20 18.32 56.72 18.32L56.72 18.32L57.44 21.12Q53.52 21.12 52.68 23.32L52.68 23.32Q53.88 24.24 54.54 25.52Q55.20 26.80 55.20 28.36L55.20 28.36Q55.20 30.32 54.16 31.86Q53.12 33.40 51.24 34.26Q49.36 35.12 47 35.12L47 35.12Q45.24 35.12 43.92 34.76L43.92 34.76Q42.72 35.04 42.20 35.64Q41.68 36.24 41.68 37.28L41.68 37.28Q41.68 38.32 42.40 38.88Q43.12 39.44 44.32 39.44L44.32 39.44L50.96 39.44ZM47 24.20Q44.92 24.20 43.52 25.36Q42.12 26.52 42.12 28.36L42.12 28.36Q42.12 30.20 43.52 31.36Q44.92 32.52 47 32.52L47 32.52Q49.08 32.52 50.48 31.36Q51.88 30.20 51.88 28.36L51.88 28.36Q51.88 26.52 50.48 25.36Q49.08 24.20 47 24.20L47 24.20ZM47.48 47.92Q50.52 47.92 52.28 46.94Q54.04 45.96 54.04 44.56L54.04 44.56Q54.04 43.40 53.14 42.80Q52.24 42.20 50.08 42.20L50.08 42.20L44.72 42.20Q42.88 42.20 41.88 42.86Q40.88 43.52 40.88 44.68L40.88 44.68Q40.88 46.20 42.56 47.06Q44.24 47.92 47.48 47.92L47.48 47.92Z M71.48 21.60Q74.88 21.60 77.08 23.56Q79.28 25.52 79.28 29.20L79.28 29.20L79.28 42L76.08 42L76.08 30.32Q76.08 27.20 74.74 25.80Q73.40 24.40 71.16 24.40L71.16 24.40Q69.56 24.40 68.16 25.10Q66.76 25.80 65.86 27.38Q64.96 28.96 64.96 31.36L64.96 31.36L64.96 42L61.76 42L61.76 22L64.56 22L64.76 25.12Q65.76 23.32 67.52 22.46Q69.28 21.60 71.48 21.60L71.48 21.60Z M93.32 42.40Q90.44 42.40 88.12 41.26Q85.80 40.12 84.72 37.88L84.72 37.88L87.32 36.08Q88 37.84 89.68 38.72Q91.36 39.60 93.64 39.60L93.64 39.60Q96 39.60 97.24 38.76Q98.48 37.92 98.48 36.64L98.48 36.64Q98.48 35.48 97.32 34.78Q96.16 34.08 93.24 33.56L93.24 33.56Q90.36 33.04 88.68 32.30Q87 31.56 86.24 30.42Q85.48 29.28 85.48 27.60L85.48 27.60Q85.48 25.96 86.44 24.60Q87.40 23.24 89.20 22.42Q91 21.60 93.36 21.60L93.36 21.60Q96.56 21.60 98.50 22.78Q100.44 23.96 101.28 26.40L101.28 26.40L98.56 28Q97.92 26.08 96.62 25.24Q95.32 24.40 93.36 24.40L93.36 24.40Q91.40 24.40 90.04 25.28Q88.68 26.16 88.68 27.32L88.68 27.32Q88.68 28.64 89.86 29.36Q91.04 30.08 94.08 30.60L94.08 30.60Q98.24 31.28 99.96 32.64Q101.68 34 101.68 36.48L101.68 36.48Q101.68 38.20 100.66 39.54Q99.64 40.88 97.74 41.64Q95.84 42.40 93.32 42.40L93.32 42.40Z M159.28 28.68L170.60 28.68L170.60 42L168.20 42L168.08 38.44Q166.92 40.36 164.82 41.38Q162.72 42.40 159.76 42.40L159.76 42.40Q156.04 42.40 153.28 40.74Q150.52 39.08 149.02 36.02Q147.52 32.96 147.52 28.80L147.52 28.80Q147.52 24.68 149.06 21.60Q150.60 18.52 153.38 16.86Q156.16 15.20 159.84 15.20L159.84 15.20Q163.76 15.20 166.30 16.68Q168.84 18.16 170.40 21.24L170.40 21.24L167.48 22.84Q166.60 20.60 164.62 19.40Q162.64 18.20 159.84 18.20L159.84 18.20Q157.16 18.20 155.14 19.48Q153.12 20.76 152 23.14Q150.88 25.52 150.88 28.80L150.88 28.80Q150.88 33.84 153.20 36.62Q155.52 39.40 159.88 39.40L159.88 39.40Q163.32 39.40 165.50 37.64Q167.68 35.88 167.68 32.60L167.68 32.60L167.68 31.68L159.28 31.68L159.28 28.68Z M186.92 21.60Q188.36 21.60 189.12 22L189.12 22L188.48 25.12Q187.52 24.60 185.96 24.60L185.96 24.60Q184.68 24.60 183.46 25.34Q182.24 26.08 181.46 27.58Q180.68 29.08 180.68 31.20L180.68 31.20L180.68 42L177.48 42L177.48 22L180.08 22L180.52 25.28Q182.20 21.60 186.92 21.60L186.92 21.60Z M209.64 39.68Q210.44 39.68 211.24 39.48L211.24 39.48L211.04 42Q209.92 42.40 208.64 42.40L208.64 42.40Q207.08 42.40 206.18 41.72Q205.28 41.04 205.04 39.44L205.04 39.44Q204.12 40.84 202.34 41.62Q200.56 42.40 198.60 42.40L198.60 42.40Q195.64 42.40 193.72 41.02Q191.80 39.64 191.80 37.04L191.80 37.04Q191.80 34.76 193.80 33.10Q195.80 31.44 199.60 30.80L199.60 30.80L204.92 29.92L204.92 28.80Q204.92 26.80 203.68 25.60Q202.44 24.40 200.24 24.40L200.24 24.40Q198.24 24.40 196.78 25.36Q195.32 26.32 194.52 28.20L194.52 28.20L192.16 26.48Q192.96 24.24 195.14 22.92Q197.32 21.60 200.24 21.60L200.24 21.60Q203.80 21.60 205.96 23.32Q208.12 25.04 208.12 28.40L208.12 28.40L208.12 38.24Q208.12 38.96 208.48 39.32Q208.84 39.68 209.64 39.68L209.64 39.68ZM198.76 39.60Q201.28 39.60 203.10 38.40Q204.92 37.20 204.92 35.28L204.92 35.28L204.92 32.52L200.44 33.36Q197.76 33.84 196.44 34.74Q195.12 35.64 195.12 37.04L195.12 37.04Q195.12 38.28 196.08 38.94Q197.04 39.60 198.76 39.60L198.76 39.60Z M225.72 21.60Q229.92 21.60 232.38 24.38Q234.84 27.16 234.84 32L234.84 32Q234.84 36.84 232.38 39.62Q229.92 42.40 225.72 42.40L225.72 42.40Q223.52 42.40 221.78 41.44Q220.04 40.48 219.08 38.88L219.08 38.88L219.08 50.40L215.88 50.40L215.88 22L218.68 22L218.88 25.48Q219.76 23.72 221.58 22.66Q223.40 21.60 225.72 21.60L225.72 21.60ZM225.36 39.60Q228.28 39.60 229.96 37.54Q231.64 35.48 231.64 32L231.64 32Q231.64 28.52 229.96 26.46Q228.28 24.40 225.36 24.40L225.36 24.40Q222.48 24.40 220.78 26.40Q219.08 28.40 219.08 31.76L219.08 31.76L219.08 32.24Q219.08 35.60 220.78 37.60Q222.48 39.60 225.36 39.60L225.36 39.60Z M250.80 21.60Q254.20 21.60 256.40 23.56Q258.60 25.52 258.60 29.20L258.60 29.20L258.60 42L255.40 42L255.40 30.32Q255.40 27.20 254.06 25.80Q252.72 24.40 250.48 24.40L250.48 24.40Q248.92 24.40 247.50 25.12Q246.08 25.84 245.18 27.42Q244.28 29 244.28 31.40L244.28 31.40L244.28 42L241.08 42L241.08 12.80L244.28 12.80L244.28 25Q245.28 23.28 246.98 22.44Q248.68 21.60 250.80 21.60L250.80 21.60Z M267.44 18.16Q266.36 18.16 265.70 17.50Q265.04 16.84 265.04 15.76L265.04 15.76Q265.04 14.68 265.70 14.02Q266.36 13.36 267.44 13.36L267.44 13.36Q268.52 13.36 269.18 14.02Q269.84 14.68 269.84 15.76L269.84 15.76Q269.84 16.84 269.18 17.50Q268.52 18.16 267.44 18.16L267.44 18.16ZM269.04 22L269.04 42L265.84 42L265.84 22L269.04 22Z M284.92 21.60Q287.92 21.60 289.98 22.98Q292.04 24.36 293.20 26.92L293.20 26.92L290.16 28.36Q288.88 24.40 284.84 24.40L284.84 24.40Q281.84 24.40 280.14 26.42Q278.44 28.44 278.44 32L278.44 32Q278.44 35.56 280.14 37.58Q281.84 39.60 284.84 39.60L284.84 39.60Q287.16 39.60 288.58 38.54Q290 37.48 290.44 35.48L290.44 35.48L293.40 36.52Q292.36 39.32 290.20 40.86Q288.04 42.40 284.92 42.40L284.92 42.40Q280.40 42.40 277.82 39.64Q275.24 36.88 275.24 32L275.24 32Q275.24 27.12 277.82 24.36Q280.40 21.60 284.92 21.60L284.92 21.60Z M305.84 42.40Q302.96 42.40 300.64 41.26Q298.32 40.12 297.24 37.88L297.24 37.88L299.84 36.08Q300.52 37.84 302.20 38.72Q303.88 39.60 306.16 39.60L306.16 39.60Q308.52 39.60 309.76 38.76Q311 37.92 311 36.64L311 36.64Q311 35.48 309.84 34.78Q308.68 34.08 305.76 33.56L305.76 33.56Q302.88 33.04 301.20 32.30Q299.52 31.56 298.76 30.42Q298 29.28 298 27.60L298 27.60Q298 25.96 298.96 24.60Q299.92 23.24 301.72 22.42Q303.52 21.60 305.88 21.60L305.88 21.60Q309.08 21.60 311.02 22.78Q312.96 23.96 313.80 26.40L313.80 26.40L311.08 28Q310.44 26.08 309.14 25.24Q307.84 24.40 305.88 24.40L305.88 24.40Q303.92 24.40 302.56 25.28Q301.20 26.16 301.20 27.32L301.20 27.32Q301.20 28.64 302.38 29.36Q303.56 30.08 306.60 30.60L306.60 30.60Q310.76 31.28 312.48 32.64Q314.20 34 314.20 36.48L314.20 36.48Q314.20 38.20 313.18 39.54Q312.16 40.88 310.26 41.64Q308.36 42.40 305.84 42.40L305.84 42.40Z M27.44 57.60L27.44 84L24.40 84L24.40 67.40L24.76 60.44L24.72 60.44L16.04 84L13.32 84L4.64 60.44L4.60 60.44L4.96 67.40L4.96 84L1.92 84L1.92 57.60L6.84 57.60L12.64 73.64L14.64 80.24L14.72 80.24L16.76 73.68L22.52 57.60L27.44 57.60Z M51.64 81.68Q52.44 81.68 53.24 81.48L53.24 81.48L53.04 84Q51.92 84.40 50.64 84.40L50.64 84.40Q49.08 84.40 48.18 83.72Q47.28 83.04 47.04 81.44L47.04 81.44Q46.12 82.84 44.34 83.62Q42.56 84.40 40.60 84.40L40.60 84.40Q37.64 84.40 35.72 83.02Q33.80 81.64 33.80 79.04L33.80 79.04Q33.80 76.76 35.80 75.10Q37.80 73.44 41.60 72.80L41.60 72.80L46.92 71.92L46.92 70.80Q46.92 68.80 45.68 67.60Q44.44 66.40 42.24 66.40L42.24 66.40Q40.24 66.40 38.78 67.36Q37.32 68.32 36.52 70.20L36.52 70.20L34.16 68.48Q34.96 66.24 37.14 64.92Q39.32 63.60 42.24 63.60L42.24 63.60Q45.80 63.60 47.96 65.32Q50.12 67.04 50.12 70.40L50.12 70.40L50.12 80.24Q50.12 80.96 50.48 81.32Q50.84 81.68 51.64 81.68L51.64 81.68ZM40.76 81.60Q43.28 81.60 45.10 80.40Q46.92 79.20 46.92 77.28L46.92 77.28L46.92 74.52L42.44 75.36Q39.76 75.84 38.44 76.74Q37.12 77.64 37.12 79.04L37.12 79.04Q37.12 80.28 38.08 80.94Q39.04 81.60 40.76 81.60L40.76 81.60Z M59.48 60.16Q58.40 60.16 57.74 59.50Q57.08 58.84 57.08 57.76L57.08 57.76Q57.08 56.68 57.74 56.02Q58.40 55.36 59.48 55.36L59.48 55.36Q60.56 55.36 61.22 56.02Q61.88 56.68 61.88 57.76L61.88 57.76Q61.88 58.84 61.22 59.50Q60.56 60.16 59.48 60.16L59.48 60.16ZM61.08 64L61.08 84L57.88 84L57.88 64L61.08 64Z M78.24 63.60Q81.64 63.60 83.84 65.56Q86.04 67.52 86.04 71.20L86.04 71.20L86.04 84L82.84 84L82.84 72.32Q82.84 69.20 81.50 67.80Q80.16 66.40 77.92 66.40L77.92 66.40Q76.32 66.40 74.92 67.10Q73.52 67.80 72.62 69.38Q71.72 70.96 71.72 73.36L71.72 73.36L71.72 84L68.52 84L68.52 64L71.32 64L71.52 67.12Q72.52 65.32 74.28 64.46Q76.04 63.60 78.24 63.60L78.24 63.60Z M104.12 79.92L105.24 82.60Q103.24 84.40 100.08 84.40L100.08 84.40Q97.64 84.40 96.10 83.08Q94.56 81.76 94.52 79.04L94.52 79.04L94.52 66.76L90.52 66.76L90.52 64L94.52 64L94.52 59.20L97.72 58.32L97.72 64L105.12 64L105.12 66.76L97.72 66.76L97.72 78.48Q97.72 79.92 98.54 80.66Q99.36 81.40 100.72 81.40L100.72 81.40Q102.64 81.40 104.12 79.92L104.12 79.92Z M126.92 72.96Q126.92 74.08 126.76 75.20L126.76 75.20L111.68 75.20Q111.96 78.24 113.70 79.92Q115.44 81.60 118.20 81.60L118.20 81.60Q120.40 81.60 121.86 80.84Q123.32 80.08 123.84 78.64L123.84 78.64L126.52 80.04Q125.32 82.16 123.32 83.28Q121.32 84.40 118.20 84.40L118.20 84.40Q113.68 84.40 111.10 81.64Q108.52 78.88 108.52 74L108.52 74Q108.52 69.12 110.98 66.36Q113.44 63.60 117.96 63.60L117.96 63.60Q120.76 63.60 122.80 64.84Q124.84 66.08 125.88 68.20Q126.92 70.32 126.92 72.96L126.92 72.96ZM117.96 66.40Q115.32 66.40 113.70 67.96Q112.08 69.52 111.72 72.36L111.72 72.36L123.84 72.36Q123.52 69.56 122 67.98Q120.48 66.40 117.96 66.40L117.96 66.40Z M142.72 63.60Q146.12 63.60 148.32 65.56Q150.52 67.52 150.52 71.20L150.52 71.20L150.52 84L147.32 84L147.32 72.32Q147.32 69.20 145.98 67.80Q144.64 66.40 142.40 66.40L142.40 66.40Q140.80 66.40 139.40 67.10Q138 67.80 137.10 69.38Q136.20 70.96 136.20 73.36L136.20 73.36L136.20 84L133 84L133 64L135.80 64L136 67.12Q137 65.32 138.76 64.46Q140.52 63.60 142.72 63.60L142.72 63.60Z M174.16 81.68Q174.96 81.68 175.76 81.48L175.76 81.48L175.56 84Q174.44 84.40 173.16 84.40L173.16 84.40Q171.60 84.40 170.70 83.72Q169.80 83.04 169.56 81.44L169.56 81.44Q168.64 82.84 166.86 83.62Q165.08 84.40 163.12 84.40L163.12 84.40Q160.16 84.40 158.24 83.02Q156.32 81.64 156.32 79.04L156.32 79.04Q156.32 76.76 158.32 75.10Q160.32 73.44 164.12 72.80L164.12 72.80L169.44 71.92L169.44 70.80Q169.44 68.80 168.20 67.60Q166.96 66.40 164.76 66.40L164.76 66.40Q162.76 66.40 161.30 67.36Q159.84 68.32 159.04 70.20L159.04 70.20L156.68 68.48Q157.48 66.24 159.66 64.92Q161.84 63.60 164.76 63.60L164.76 63.60Q168.32 63.60 170.48 65.32Q172.64 67.04 172.64 70.40L172.64 70.40L172.64 80.24Q172.64 80.96 173 81.32Q173.36 81.68 174.16 81.68L174.16 81.68ZM163.28 81.60Q165.80 81.60 167.62 80.40Q169.44 79.20 169.44 77.28L169.44 77.28L169.44 74.52L164.96 75.36Q162.28 75.84 160.96 76.74Q159.64 77.64 159.64 79.04L159.64 79.04Q159.64 80.28 160.60 80.94Q161.56 81.60 163.28 81.60L163.28 81.60Z M190.12 63.60Q193.52 63.60 195.72 65.56Q197.92 67.52 197.92 71.20L197.92 71.20L197.92 84L194.72 84L194.72 72.32Q194.72 69.20 193.38 67.80Q192.04 66.40 189.80 66.40L189.80 66.40Q188.20 66.40 186.80 67.10Q185.40 67.80 184.50 69.38Q183.60 70.96 183.60 73.36L183.60 73.36L183.60 84L180.40 84L180.40 64L183.20 64L183.40 67.12Q184.40 65.32 186.16 64.46Q187.92 63.60 190.12 63.60L190.12 63.60Z M213.60 63.60Q216.60 63.60 218.66 64.98Q220.72 66.36 221.88 68.92L221.88 68.92L218.84 70.36Q217.56 66.40 213.52 66.40L213.52 66.40Q210.52 66.40 208.82 68.42Q207.12 70.44 207.12 74L207.12 74Q207.12 77.56 208.82 79.58Q210.52 81.60 213.52 81.60L213.52 81.60Q215.84 81.60 217.26 80.54Q218.68 79.48 219.12 77.48L219.12 77.48L222.08 78.52Q221.04 81.32 218.88 82.86Q216.72 84.40 213.60 84.40L213.60 84.40Q209.08 84.40 206.50 81.64Q203.92 78.88 203.92 74L203.92 74Q203.92 69.12 206.50 66.36Q209.08 63.60 213.60 63.60L213.60 63.60Z M244.88 72.96Q244.88 74.08 244.72 75.20L244.72 75.20L229.64 75.20Q229.92 78.24 231.66 79.92Q233.40 81.60 236.16 81.60L236.16 81.60Q238.36 81.60 239.82 80.84Q241.28 80.08 241.80 78.64L241.80 78.64L244.48 80.04Q243.28 82.16 241.28 83.28Q239.28 84.40 236.16 84.40L236.16 84.40Q231.64 84.40 229.06 81.64Q226.48 78.88 226.48 74L226.48 74Q226.48 69.12 228.94 66.36Q231.40 63.60 235.92 63.60L235.92 63.60Q238.72 63.60 240.76 64.84Q242.80 66.08 243.84 68.20Q244.88 70.32 244.88 72.96L244.88 72.96ZM235.92 66.40Q233.28 66.40 231.66 67.96Q230.04 69.52 229.68 72.36L229.68 72.36L241.80 72.36Q241.48 69.56 239.96 67.98Q238.44 66.40 235.92 66.40L235.92 66.40Z"/></defs>
  <clipPath id="id-D6z1nYkh27-clip"><use xlink:href="#id-D6z1nYkh27" /></clipPath>
  <g clip-path="url(#id-D6z1nYkh27-clip)"><use xlink:href="#id-D6z1nYkh27" class="aD6z1nYkhstrokeColor-str" style="stroke-width:0.455;"/></g>
  </g>
</svg>
</g><g opacity="1" transform="rotate(0 472.0785 338.9397)">
<svg width="171.6471" height="45.6431" x="472.0785" y="338.9397" version="1.1" preserveAspectRatio="none" viewBox="1.04 -29.2 141.4 37.6">
  <g transform="matrix(1 0 0 1 0 0)" class="aS4ZWKg3ACcolor"><path id="id-S4ZWKg3AC6" d="M21.96 0L19.16-7.32L7.20-7.32L4.40 0L1.04 0L11.32-26.40L15.12-26.40L25.36 0L21.96 0ZM8.36-10.32L18-10.32L14.44-19.68L13.20-23.36L13.12-23.36L11.96-19.80L8.36-10.32Z M39.96-20.40Q44.16-20.40 46.62-17.62Q49.08-14.84 49.08-10L49.08-10Q49.08-5.16 46.62-2.38Q44.16 0.40 39.96 0.40L39.96 0.40Q37.76 0.40 36.02-0.56Q34.28-1.52 33.32-3.12L33.32-3.12L33.32 8.40L30.12 8.40L30.12-20L32.92-20L33.12-16.52Q34-18.28 35.82-19.34Q37.64-20.40 39.96-20.40L39.96-20.40ZM39.60-2.40Q42.52-2.40 44.20-4.46Q45.88-6.52 45.88-10L45.88-10Q45.88-13.48 44.20-15.54Q42.52-17.60 39.60-17.60L39.60-17.60Q36.72-17.60 35.02-15.60Q33.32-13.60 33.32-10.24L33.32-10.24L33.32-9.76Q33.32-6.40 35.02-4.40Q36.72-2.40 39.60-2.40L39.60-2.40Z M71.72-2.32Q72.52-2.32 73.32-2.52L73.32-2.52L73.12 0Q72 0.40 70.72 0.40L70.72 0.40Q69.16 0.40 68.26-0.28Q67.36-0.96 67.12-2.56L67.12-2.56Q66.20-1.16 64.42-0.38Q62.64 0.40 60.68 0.40L60.68 0.40Q57.72 0.40 55.80-0.98Q53.88-2.36 53.88-4.96L53.88-4.96Q53.88-7.24 55.88-8.90Q57.88-10.56 61.68-11.20L61.68-11.20L67-12.08L67-13.20Q67-15.20 65.76-16.40Q64.52-17.60 62.32-17.60L62.32-17.60Q60.32-17.60 58.86-16.64Q57.40-15.68 56.60-13.80L56.60-13.80L54.24-15.52Q55.04-17.76 57.22-19.08Q59.40-20.40 62.32-20.40L62.32-20.40Q65.88-20.40 68.04-18.68Q70.20-16.96 70.20-13.60L70.20-13.60L70.20-3.76Q70.20-3.04 70.56-2.68Q70.92-2.32 71.72-2.32L71.72-2.32ZM60.84-2.40Q63.36-2.40 65.18-3.60Q67-4.80 67-6.72L67-6.72L67-9.48L62.52-8.64Q59.84-8.16 58.52-7.26Q57.20-6.36 57.20-4.96L57.20-4.96Q57.20-3.72 58.16-3.06Q59.12-2.40 60.84-2.40L60.84-2.40Z M86.40-20.40Q89.40-20.40 91.46-19.02Q93.52-17.64 94.68-15.08L94.68-15.08L91.64-13.64Q90.36-17.60 86.32-17.60L86.32-17.60Q83.32-17.60 81.62-15.58Q79.92-13.56 79.92-10L79.92-10Q79.92-6.44 81.62-4.42Q83.32-2.40 86.32-2.40L86.32-2.40Q88.64-2.40 90.06-3.46Q91.48-4.52 91.92-6.52L91.92-6.52L94.88-5.48Q93.84-2.68 91.68-1.14Q89.52 0.40 86.40 0.40L86.40 0.40Q81.88 0.40 79.30-2.36Q76.72-5.12 76.72-10L76.72-10Q76.72-14.88 79.30-17.64Q81.88-20.40 86.40-20.40L86.40-20.40Z M110.24-20.40Q113.64-20.40 115.84-18.44Q118.04-16.48 118.04-12.80L118.04-12.80L118.04 0L114.84 0L114.84-11.68Q114.84-14.80 113.50-16.20Q112.16-17.60 109.92-17.60L109.92-17.60Q108.36-17.60 106.94-16.88Q105.52-16.16 104.62-14.58Q103.72-13 103.72-10.60L103.72-10.60L103.72 0L100.52 0L100.52-29.20L103.72-29.20L103.72-17Q104.72-18.72 106.42-19.56Q108.12-20.40 110.24-20.40L110.24-20.40Z M142.44-11.04Q142.44-9.92 142.28-8.80L142.28-8.80L127.20-8.80Q127.48-5.76 129.22-4.08Q130.96-2.40 133.72-2.40L133.72-2.40Q135.92-2.40 137.38-3.16Q138.84-3.92 139.36-5.36L139.36-5.36L142.04-3.96Q140.84-1.84 138.84-0.72Q136.84 0.40 133.72 0.40L133.72 0.40Q129.20 0.40 126.62-2.36Q124.04-5.12 124.04-10L124.04-10Q124.04-14.88 126.50-17.64Q128.96-20.40 133.48-20.40L133.48-20.40Q136.28-20.40 138.32-19.16Q140.36-17.92 141.40-15.80Q142.44-13.68 142.44-11.04L142.44-11.04ZM133.48-17.60Q130.84-17.60 129.22-16.04Q127.60-14.48 127.24-11.64L127.24-11.64L139.36-11.64Q139.04-14.44 137.52-16.02Q136.00-17.60 133.48-17.60L133.48-17.60Z"/></g>
</svg>
</g><g opacity="0.2" transform="rotate(90 602.9341 398.6996)">
<svg width="16.4011" height="16.4011" x="602.9341" y="398.6996" version="1.1" preserveAspectRatio="none" viewBox="0 0 16.4011 16.4011">
  <rect x="0" y="0" width="16.4011" height="16.4011" class="akd1NTa2jufillColor akd1NTa2justrokeColor-str" style="stroke-width:0;" rx="50%" ry="50%" />
</svg>
</g></svg>